<svg xmlns="http://www.w3.org/2000/svg" width="60" height="60" viewBox="0 0 60 60">
  <g id="Group_31" data-name="Group 31" transform="translate(-858 -628)">
    <rect id="Rectangle_9" data-name="Rectangle 9" width="60" height="60" rx="13" transform="translate(858 628)" fill="#df4842"/>
    <path id="gfit_health_FILL0_wght400_GRAD0_opsz48" d="M24,40.6,6.65,23.35A8.6,8.6,0,0,1,4.7,20.4,9.2,9.2,0,0,1,4.05,17a8.722,8.722,0,0,1,2.6-6.375A8.6,8.6,0,0,1,13,8a8.963,8.963,0,0,1,6.35,2.65L24,15.25l4.65-4.6A8.963,8.963,0,0,1,35,8a8.963,8.963,0,0,1,9,9,8.963,8.963,0,0,1-2.65,6.35ZM15.5,23.7l4.25-4.25-4.6-4.55a3.144,3.144,0,0,0-1.075-.725A2.451,2.451,0,0,0,12.95,14a3.024,3.024,0,0,0-2.075.925A2.835,2.835,0,0,0,10,17a2.886,2.886,0,0,0,.225,1.1,3.031,3.031,0,0,0,.675,1ZM24,32.1l13.15-13a2.289,2.289,0,0,0,.65-.975A3.412,3.412,0,0,0,38,17a2.877,2.877,0,0,0-.85-2.075A2.935,2.935,0,0,0,35.1,14a2.451,2.451,0,0,0-1.125.175A3.144,3.144,0,0,0,32.9,14.9l-13.1,13Z" transform="translate(864.9 634.2)" fill="#fff"/>
  </g>
</svg>
