<svg xmlns="http://www.w3.org/2000/svg" width="60" height="60" viewBox="0 0 60 60">
  <g id="Group_32" data-name="Group 32" transform="translate(-858 -865)">
    <rect id="Rectangle_10" data-name="Rectangle 10" width="60" height="60" rx="13" transform="translate(858 865)" fill="#df4842"/>
    <path id="home_FILL0_wght400_GRAD0_opsz48" d="M11,39h7.5V26.5h11V39H37V19.5L24,9.75,11,19.5Zm0,3a2.988,2.988,0,0,1-3-3V19.5a2.983,2.983,0,0,1,.325-1.35A2.847,2.847,0,0,1,9.2,17.1l13-9.75a2.978,2.978,0,0,1,3.6,0l13,9.75a2.847,2.847,0,0,1,.875,1.05A2.983,2.983,0,0,1,40,19.5V39a2.988,2.988,0,0,1-3,3H26.5V29.5h-5V42ZM24,24.35Z" transform="translate(864.925 870.625)" fill="#fff"/>
  </g>
</svg>
