<svg xmlns="http://www.w3.org/2000/svg" width="435.937" height="102.165" viewBox="0 0 435.937 102.165">
  <g id="Group_29" data-name="Group 29" transform="translate(-1069.964 -6423.45)">
    <path id="Path_2" data-name="Path 2" d="M8.8,37.15H1.2a11.791,11.791,0,0,0,1.2,5.7A11.238,11.238,0,0,0,5.775,46.8a14.4,14.4,0,0,0,4.9,2.275A22.555,22.555,0,0,0,16.4,49.8a21.982,21.982,0,0,0,6.425-.85,13.587,13.587,0,0,0,4.65-2.375A9.885,9.885,0,0,0,30.3,42.95a10.909,10.909,0,0,0,.95-4.55,8.752,8.752,0,0,0-1.275-4.925A10.65,10.65,0,0,0,26.95,30.4a13.3,13.3,0,0,0-3.525-1.675Q21.65,28.2,20.65,28q-3.35-.85-5.425-1.4a20.123,20.123,0,0,1-3.25-1.1A3.57,3.57,0,0,1,10.4,24.3a3.209,3.209,0,0,1-.4-1.7,3.357,3.357,0,0,1,.5-1.9,4.342,4.342,0,0,1,1.275-1.25,5.082,5.082,0,0,1,1.725-.7,9.2,9.2,0,0,1,1.9-.2,13.389,13.389,0,0,1,2.675.25,6.448,6.448,0,0,1,2.175.85,4.417,4.417,0,0,1,1.525,1.65,6.312,6.312,0,0,1,.675,2.65h7.6a10.964,10.964,0,0,0-1.175-5.275A10.244,10.244,0,0,0,25.7,15.1a13.406,13.406,0,0,0-4.575-2.025,22.712,22.712,0,0,0-5.375-.625,18.292,18.292,0,0,0-4.8.65,13.4,13.4,0,0,0-4.3,2,10.647,10.647,0,0,0-3.075,3.375A9.348,9.348,0,0,0,2.4,23.25a8.729,8.729,0,0,0,.925,4.175A8.83,8.83,0,0,0,5.75,30.3a13.4,13.4,0,0,0,3.4,1.875,34.185,34.185,0,0,0,3.9,1.225q1.95.55,3.85,1a24.2,24.2,0,0,1,3.4,1.05,7.336,7.336,0,0,1,2.425,1.5,3.132,3.132,0,0,1,.925,2.35,3.45,3.45,0,0,1-.7,2.225A4.909,4.909,0,0,1,21.2,42.9a7.829,7.829,0,0,1-2.25.675,15.639,15.639,0,0,1-2.25.175,11.933,11.933,0,0,1-3-.375,7.467,7.467,0,0,1-2.525-1.15A5.68,5.68,0,0,1,9.45,40.2,6.548,6.548,0,0,1,8.8,37.15ZM34.85,31.1a8.247,8.247,0,0,1,1.25-4.15,8.512,8.512,0,0,1,2.8-2.65,12.2,12.2,0,0,1,3.825-1.425A21.746,21.746,0,0,1,47,22.45a28.973,28.973,0,0,1,3.95.275A12.083,12.083,0,0,1,54.6,23.8a7.192,7.192,0,0,1,2.7,2.225A6.217,6.217,0,0,1,58.35,29.8V43.25a27.012,27.012,0,0,0,.2,3.35,6.056,6.056,0,0,0,.7,2.4h-7.2a10.188,10.188,0,0,1-.325-1.225A10.666,10.666,0,0,1,51.55,46.5a9.252,9.252,0,0,1-4,2.45,16.055,16.055,0,0,1-4.7.7,12.7,12.7,0,0,1-3.45-.45,7.9,7.9,0,0,1-2.8-1.4,6.517,6.517,0,0,1-1.875-2.4,8.114,8.114,0,0,1-.675-3.45,7.537,7.537,0,0,1,.775-3.625,6.48,6.48,0,0,1,2-2.275,8.961,8.961,0,0,1,2.8-1.275A29.891,29.891,0,0,1,42.8,34.1q1.6-.25,3.15-.4a18.943,18.943,0,0,0,2.75-.45,4.794,4.794,0,0,0,1.9-.875,1.921,1.921,0,0,0,.65-1.675,3.767,3.767,0,0,0-.375-1.825,2.758,2.758,0,0,0-1-1.05,3.934,3.934,0,0,0-1.45-.5A11.865,11.865,0,0,0,46.65,27.2a5.389,5.389,0,0,0-3.3.9,4.018,4.018,0,0,0-1.4,3Zm16.4,5.25a3.185,3.185,0,0,1-1.125.625,11.49,11.49,0,0,1-1.45.375q-.775.15-1.625.25t-1.7.25a12.822,12.822,0,0,0-1.575.4,4.657,4.657,0,0,0-1.35.675A3.209,3.209,0,0,0,41.5,40a3.458,3.458,0,0,0-.35,1.65,3.34,3.34,0,0,0,.35,1.6,2.683,2.683,0,0,0,.95,1.025,4.009,4.009,0,0,0,1.4.525,8.936,8.936,0,0,0,1.65.15,6.276,6.276,0,0,0,3.25-.7,4.682,4.682,0,0,0,1.7-1.675,5.357,5.357,0,0,0,.675-1.975A13.568,13.568,0,0,0,51.25,39Zm12.8-13.2V49h7.1V34a7.307,7.307,0,0,1,.55-3.075,4.964,4.964,0,0,1,1.325-1.8,4.4,4.4,0,0,1,1.6-.85,5.321,5.321,0,0,1,1.325-.225,4.715,4.715,0,0,1,2.575.575,3.191,3.191,0,0,1,1.25,1.525,6.386,6.386,0,0,1,.425,2.075q.05,1.125.05,2.275V49h7.1V34.6a16.1,16.1,0,0,1,.175-2.375,6.006,6.006,0,0,1,.7-2.1,4.166,4.166,0,0,1,1.45-1.5A4.542,4.542,0,0,1,92.1,28.05a4.792,4.792,0,0,1,2.375.5A3.33,3.33,0,0,1,95.8,29.9a5.2,5.2,0,0,1,.55,2q.1,1.15.1,2.45V49h7.1V31.7a11.659,11.659,0,0,0-.7-4.275,7.33,7.33,0,0,0-1.95-2.875,7.65,7.65,0,0,0-3-1.6,13.787,13.787,0,0,0-3.8-.5,8.308,8.308,0,0,0-4.675,1.3,11,11,0,0,0-3.125,3,6.287,6.287,0,0,0-3.075-3.35,10.405,10.405,0,0,0-4.475-.95,9.142,9.142,0,0,0-4.525,1.1,10.111,10.111,0,0,0-3.375,3.1h-.1v-3.5Zm45.1,0V49h7.1V37.35a14.288,14.288,0,0,1,.35-3.25,7.117,7.117,0,0,1,1.175-2.625A5.715,5.715,0,0,1,119.95,29.7a7.564,7.564,0,0,1,3.3-.65,12.68,12.68,0,0,1,1.35.075q.7.075,1.2.175V22.7a5.537,5.537,0,0,0-1.55-.25,8.479,8.479,0,0,0-2.6.4,9.528,9.528,0,0,0-2.35,1.125,8.844,8.844,0,0,0-1.95,1.75A8.732,8.732,0,0,0,116,27.95h-.1v-4.8ZM145.1,33.3H133.55a8.15,8.15,0,0,1,.325-1.7,5.22,5.22,0,0,1,.95-1.8,5.378,5.378,0,0,1,1.8-1.425,6.177,6.177,0,0,1,2.825-.575,4.986,4.986,0,0,1,3.875,1.4A8.206,8.206,0,0,1,145.1,33.3Zm-11.55,4.5H152.2a18.25,18.25,0,0,0-.5-5.75,14.074,14.074,0,0,0-2.275-4.9,11.476,11.476,0,0,0-4.025-3.425,12.292,12.292,0,0,0-5.75-1.275,13.388,13.388,0,0,0-5.375,1.05,12.5,12.5,0,0,0-6.875,7.2,15.076,15.076,0,0,0-.95,5.4,15.739,15.739,0,0,0,.925,5.5A12.49,12.49,0,0,0,130,45.9a11.436,11.436,0,0,0,4.15,2.775,14.764,14.764,0,0,0,5.5.975,13.54,13.54,0,0,0,7.5-2,11.864,11.864,0,0,0,4.6-6.65H145.5a4.459,4.459,0,0,1-1.9,2.275,7.279,7.279,0,0,1-8.3-.475Q133.7,41.25,133.55,37.8Zm40.25-4.5H162.25a8.15,8.15,0,0,1,.325-1.7,5.22,5.22,0,0,1,.95-1.8,5.378,5.378,0,0,1,1.8-1.425,6.177,6.177,0,0,1,2.825-.575,4.986,4.986,0,0,1,3.875,1.4A8.206,8.206,0,0,1,173.8,33.3Zm-11.55,4.5H180.9a18.25,18.25,0,0,0-.5-5.75,14.074,14.074,0,0,0-2.275-4.9,11.476,11.476,0,0,0-4.025-3.425,12.292,12.292,0,0,0-5.75-1.275,13.388,13.388,0,0,0-5.375,1.05,12.5,12.5,0,0,0-6.875,7.2,15.077,15.077,0,0,0-.95,5.4,15.739,15.739,0,0,0,.925,5.5,12.49,12.49,0,0,0,2.625,4.3,11.436,11.436,0,0,0,4.15,2.775,14.764,14.764,0,0,0,5.5.975,13.54,13.54,0,0,0,7.5-2,11.864,11.864,0,0,0,4.6-6.65H174.2a4.459,4.459,0,0,1-1.9,2.275A7.279,7.279,0,0,1,164,42.8Q162.4,41.25,162.25,37.8ZM185.1,23.15V49h7.1V35.45q0-3.95,1.3-5.675a4.919,4.919,0,0,1,4.2-1.725,3.873,3.873,0,0,1,3.55,1.575,9.059,9.059,0,0,1,1,4.775V49h7.1V33.1a20.834,20.834,0,0,0-.425-4.375,8.32,8.32,0,0,0-1.475-3.35,6.931,6.931,0,0,0-2.875-2.15,12.058,12.058,0,0,0-4.675-.775,10.121,10.121,0,0,0-4.4,1.025A8.146,8.146,0,0,0,192,26.75h-.15v-3.6Zm44.3-9.85V49h7.85V37.5l4.5-4.55L252.5,49h9.85l-15.3-21.6L261,13.3h-9.8L237.25,28.1V13.3Zm35.05,17.8a8.248,8.248,0,0,1,1.25-4.15,8.512,8.512,0,0,1,2.8-2.65,12.2,12.2,0,0,1,3.825-1.425,21.746,21.746,0,0,1,4.275-.425,28.973,28.973,0,0,1,3.95.275A12.083,12.083,0,0,1,284.2,23.8a7.192,7.192,0,0,1,2.7,2.225,6.218,6.218,0,0,1,1.05,3.775V43.25a27.013,27.013,0,0,0,.2,3.35,6.056,6.056,0,0,0,.7,2.4h-7.2a10.191,10.191,0,0,1-.325-1.225,10.663,10.663,0,0,1-.175-1.275,9.252,9.252,0,0,1-4,2.45,16.055,16.055,0,0,1-4.7.7A12.7,12.7,0,0,1,269,49.2a7.9,7.9,0,0,1-2.8-1.4,6.517,6.517,0,0,1-1.875-2.4,8.115,8.115,0,0,1-.675-3.45,7.537,7.537,0,0,1,.775-3.625,6.48,6.48,0,0,1,2-2.275,8.961,8.961,0,0,1,2.8-1.275A29.891,29.891,0,0,1,272.4,34.1q1.6-.25,3.15-.4a18.943,18.943,0,0,0,2.75-.45,4.794,4.794,0,0,0,1.9-.875,1.92,1.92,0,0,0,.65-1.675,3.767,3.767,0,0,0-.375-1.825,2.758,2.758,0,0,0-1-1.05,3.934,3.934,0,0,0-1.45-.5,11.865,11.865,0,0,0-1.775-.125,5.389,5.389,0,0,0-3.3.9,4.018,4.018,0,0,0-1.4,3Zm16.4,5.25a3.185,3.185,0,0,1-1.125.625,11.489,11.489,0,0,1-1.45.375q-.775.15-1.625.25t-1.7.25a12.822,12.822,0,0,0-1.575.4,4.656,4.656,0,0,0-1.35.675A3.209,3.209,0,0,0,271.1,40a3.459,3.459,0,0,0-.35,1.65,3.34,3.34,0,0,0,.35,1.6,2.683,2.683,0,0,0,.95,1.025,4.009,4.009,0,0,0,1.4.525,8.936,8.936,0,0,0,1.65.15,6.276,6.276,0,0,0,3.25-.7,4.682,4.682,0,0,0,1.7-1.675,5.357,5.357,0,0,0,.675-1.975,13.565,13.565,0,0,0,.125-1.6Zm18.1,4.25H292.2a8.692,8.692,0,0,0,1.175,4.325,8.579,8.579,0,0,0,2.75,2.775,11.614,11.614,0,0,0,3.825,1.5,21.42,21.42,0,0,0,4.4.45,22,22,0,0,0,4.325-.425,10.965,10.965,0,0,0,3.775-1.475,7.852,7.852,0,0,0,3.7-7.05,6.017,6.017,0,0,0-.7-3.025,6.408,6.408,0,0,0-1.85-2.05,9.951,9.951,0,0,0-2.625-1.325,30,30,0,0,0-3.025-.85q-1.5-.35-2.95-.65a22.814,22.814,0,0,1-2.575-.675,5.4,5.4,0,0,1-1.825-.975,1.947,1.947,0,0,1-.7-1.55,1.915,1.915,0,0,1,.4-1.275,2.626,2.626,0,0,1,.975-.725,4.34,4.34,0,0,1,1.275-.325,12.256,12.256,0,0,1,1.3-.075,7.085,7.085,0,0,1,3.3.725A3.106,3.106,0,0,1,308.7,30.7h6.75a8.482,8.482,0,0,0-1.225-3.975A8.092,8.092,0,0,0,311.65,24.2a10.778,10.778,0,0,0-3.525-1.35,20.48,20.48,0,0,0-4.075-.4,22.2,22.2,0,0,0-4.1.375,11.29,11.29,0,0,0-3.6,1.3,7.187,7.187,0,0,0-2.575,2.525,7.778,7.778,0,0,0-.975,4.1,5.526,5.526,0,0,0,.7,2.875,6.078,6.078,0,0,0,1.85,1.95,10.337,10.337,0,0,0,2.625,1.25q1.475.475,3.025.825a42.435,42.435,0,0,1,5.925,1.6q2.125.8,2.125,2.4a2.627,2.627,0,0,1-.45,1.575,3.411,3.411,0,0,1-1.125,1,5.358,5.358,0,0,1-1.5.55,7.6,7.6,0,0,1-1.575.175,8.121,8.121,0,0,1-2.025-.25,5.252,5.252,0,0,1-1.725-.775,4.15,4.15,0,0,1-1.225-1.35A3.894,3.894,0,0,1,298.95,40.6ZM320.3,13.3V49h7.1V35.45q0-3.95,1.3-5.675a4.919,4.919,0,0,1,4.2-1.725,3.873,3.873,0,0,1,3.55,1.575,9.059,9.059,0,0,1,1,4.775V49h7.1V33.1a20.833,20.833,0,0,0-.425-4.375,8.32,8.32,0,0,0-1.475-3.35,6.931,6.931,0,0,0-2.875-2.15,12.058,12.058,0,0,0-4.675-.775,9.311,9.311,0,0,0-4.1,1.025,8.222,8.222,0,0,0-3.45,3.275h-.15V13.3Zm29.85,9.85V49h7.1V34a7.307,7.307,0,0,1,.55-3.075,4.965,4.965,0,0,1,1.325-1.8,4.4,4.4,0,0,1,1.6-.85,5.32,5.32,0,0,1,1.325-.225,4.715,4.715,0,0,1,2.575.575,3.191,3.191,0,0,1,1.25,1.525,6.385,6.385,0,0,1,.425,2.075q.05,1.125.05,2.275V49h7.1V34.6a16.1,16.1,0,0,1,.175-2.375,6.006,6.006,0,0,1,.7-2.1,4.166,4.166,0,0,1,1.45-1.5,4.542,4.542,0,0,1,2.425-.575,4.792,4.792,0,0,1,2.375.5A3.33,3.33,0,0,1,381.9,29.9a5.2,5.2,0,0,1,.55,2q.1,1.15.1,2.45V49h7.1V31.7a11.659,11.659,0,0,0-.7-4.275A7.33,7.33,0,0,0,387,24.55a7.65,7.65,0,0,0-3-1.6,13.787,13.787,0,0,0-3.8-.5,8.308,8.308,0,0,0-4.675,1.3,11,11,0,0,0-3.125,3,6.287,6.287,0,0,0-3.075-3.35,10.405,10.405,0,0,0-4.475-.95,9.142,9.142,0,0,0-4.525,1.1,10.111,10.111,0,0,0-3.375,3.1h-.1v-3.5Zm52.4-4V13.3h-7.1v5.85Zm-7.1,4V49h7.1V23.15Zm12.7,0V49h7.1V37.35a14.288,14.288,0,0,1,.35-3.25,7.117,7.117,0,0,1,1.175-2.625A5.715,5.715,0,0,1,418.95,29.7a7.564,7.564,0,0,1,3.3-.65,12.679,12.679,0,0,1,1.35.075q.7.075,1.2.175V22.7a5.537,5.537,0,0,0-1.55-.25,8.478,8.478,0,0,0-2.6.4,9.528,9.528,0,0,0-2.35,1.125,8.845,8.845,0,0,0-1.95,1.75A8.732,8.732,0,0,0,415,27.95h-.1v-4.8Zm26.75-4V13.3h-7.1v5.85Zm-7.1,4V49h7.1V23.15Z" transform="translate(1071 6411)" fill="#df4842"/>
    <path id="Path_3" data-name="Path 3" d="M10.7,8.7C6.3,15.85,1.05,25.65-.45,30.05c-1.05,3.1-.55,4.7.4,5.5.35.3.65.3.85-.2C2.25,32,4.1,28.25,6,24.55a41.98,41.98,0,0,1,9.2-1.4c.6,0,.7-.3.55-.75-.45-1.5-1.7-2.55-4.2-2.4a24.909,24.909,0,0,0-3.35.4C10.65,15.9,13,11.85,14.75,9c3.05-.45,6.55-1.45,10.3-1.4.65,0,.75-.35.6-.75a4.066,4.066,0,0,0-4.1-2.55c-2.8,0-8.1,1.45-12.25,1.25-.5,0-.65.2-.55.6A3.655,3.655,0,0,0,10.7,8.7ZM21.25,26.45C24.75,29.3,28.1,28,30.55,25c2.1-2.55,2.5-5.6,1.6-6.8a9.3,9.3,0,0,0-2.95-2.6c-2.5-1.45-7.6,1.15-10.85,7.6s-1.05,12.7,5.3,12.6a12.67,12.67,0,0,0,9.8-5.4,4.057,4.057,0,0,0,.85-3.1c-.2-.45-.6-.45-.85-.05-2.15,3.3-5.8,7.3-9.95,7.1C20.85,34.2,19.65,31.05,21.25,26.45Zm.45-1.1c.1-.25.25-.55.4-.85,2.35-4.75,6.5-7.75,7.55-6.9.7.55-.4,3.15-2,5.25C26.2,24.75,24.15,26.9,21.7,25.35Zm15.55,1.1C40.75,29.3,44.1,28,46.55,25c2.1-2.55,2.5-5.6,1.6-6.8a9.3,9.3,0,0,0-2.95-2.6c-2.5-1.45-7.6,1.15-10.85,7.6s-1.05,12.7,5.3,12.6a12.67,12.67,0,0,0,9.8-5.4,4.057,4.057,0,0,0,.85-3.1c-.2-.45-.6-.45-.85-.05-2.15,3.3-5.8,7.3-9.95,7.1C36.85,34.2,35.65,31.05,37.25,26.45Zm.45-1.1c.1-.25.25-.55.4-.85,2.35-4.75,6.5-7.75,7.55-6.9.7.55-.4,3.15-2,5.25C42.2,24.75,40.15,26.9,37.7,25.35ZM53.55,25C58,22.1,63.6,16.1,65.15,9.95c.6-2.35.3-4.2-1.15-5.5-.7-.65-1.4-.55-2.15.25C56.75,10,51.05,19.05,49.2,27.75c-1.15,5.4.7,7.8,4.15,7.9,4,.1,7.65-4.05,8.35-5.55a4.6,4.6,0,0,0,.5-3.1c-.2-.7-.75-.65-1.1,0-1.95,3.85-5.45,7.45-7.85,7.25C51,34.05,51.55,29.9,53.55,25Zm.9-2.15q.525-1.2,1.2-2.4C59.1,14.05,62.8,8.5,63.45,8.9S61.3,17.3,54.45,22.85ZM81.8,9.45a93.128,93.128,0,0,0-9.55,18.5c-1.15,3.2-.65,4,.1,5.1a7.02,7.02,0,0,0,2.55,2.3,6.311,6.311,0,0,0,4.2.25,17.059,17.059,0,0,0,8.75-4.65C90,28.6,90.05,25.65,89,24.1A6.012,6.012,0,0,0,86.6,22a20.5,20.5,0,0,0,7.8-5.95A9.226,9.226,0,0,0,96.15,7.7c-.9-3.4-3.35-4.2-5.9-4.05C86.9,3.85,82.4,6.3,78.9,6.6c-.6.05-.75.3-.5.85A3.745,3.745,0,0,0,81.8,9.45ZM79.5,20.6c1.45-2.55,2.9-4.9,3.9-6.75,1.25-2.3,1.6-3.8,1.5-4.9,3.45-1.1,8.4-3.4,9.4-.8C95.55,11.55,89.4,18.3,79.5,20.6Zm3.85,2.5c4.55.25,4.55,2.5,2.7,4.8A16.477,16.477,0,0,1,76.4,33c-1.6.2-2.15-.4-1.6-2.15a46.55,46.55,0,0,1,3.35-7.75,5.618,5.618,0,0,0,3.1.35C81.95,23.35,82.65,23.25,83.35,23.1Zm13.6,3.35c3.5,2.85,6.85,1.55,9.3-1.45,2.1-2.55,2.5-5.6,1.6-6.8a9.3,9.3,0,0,0-2.95-2.6c-2.5-1.45-7.6,1.15-10.85,7.6S93,35.9,99.35,35.8a12.67,12.67,0,0,0,9.8-5.4,4.057,4.057,0,0,0,.85-3.1c-.2-.45-.6-.45-.85-.05-2.15,3.3-5.8,7.3-9.95,7.1C96.55,34.2,95.35,31.05,96.95,26.45Zm.45-1.1c.1-.25.25-.55.4-.85,2.35-4.75,6.5-7.75,7.55-6.9.7.55-.4,3.15-2,5.25C101.9,24.75,99.85,26.9,97.4,25.35Zm27.15-6.6c.1-1.95-.9-3.6-3.05-3.6-2.5,0-6.45,2.25-10.5,8.15-4.15,6.05-3.2,12.4,1.45,12.4,2.4,0,4.65-1.85,6.25-3.9,0,2.35,1.4,3.95,4.1,4.1,2.75.15,5.9-2.6,7.2-5.35a4.491,4.491,0,0,0,.45-3.1c-.2-.45-.55-.4-.8.05-1.75,3.45-4.5,6.85-6.55,6.95-1.7.1-1.65-2.05-.4-4.85,1.2-2.65,3.7-6.4,4.8-8.65,1.2-2.5.8-4.65.05-5.55q-.525-.675-1.2.3C125.8,16.5,125.2,17.55,124.55,18.75ZM120.2,26.5c-2.55,4.4-5.15,7.6-7.2,7.55-1.95-.05-1.3-4.45,1.35-8.75,2.75-4.45,6.4-7.7,8-7.55C123.8,17.9,123.35,21,120.2,26.5Zm18.3,4.45c-.4,2.9.9,4.95,4.15,4.95,2.95,0,6.05-2.55,7.5-5.35a4.351,4.351,0,0,0,.45-3.15c-.2-.45-.65-.4-.9.05-1.95,3.5-4.5,6.8-6.6,6.9-1.8.1-2-2-.7-4.85,1.15-2.55,3.65-6.3,4.75-8.55,1.2-2.5.8-4.7.05-5.6-.4-.5-.75-.4-1.25.3-1.6,2.15-3.05,5.6-6.2,10.7-2.7,4.35-5.45,7.85-7.4,7.7-1.15-.1-1.3-1.9-.25-4.35a51.186,51.186,0,0,1,3.9-7.35c1.8-2.85,2.05-5.1.95-6.75a.752.752,0,0,0-1.3.05,53.656,53.656,0,0,0-6.9,12.75c-1.1,3.3-1,7,2.55,7.25C134.1,35.85,136.75,33.3,138.5,30.95Zm16.65-15.4c-2.15,3.95-4.25,8.15-5.3,10.65-2.4,5.75.25,9.45,3.55,9.55,4,.15,7.3-4.25,7.95-5.7a4.184,4.184,0,0,0,.5-2.85c-.2-.7-.75-.6-1.05,0-1.85,3.75-4.7,7.3-6.95,7.2-2.1-.1-2.65-3.2-1-6.85,1.9-4.2,4.75-9.05,6.7-12.4a14.919,14.919,0,0,1,3.9-.2c.75,0,.95-.35.6-.95a3.13,3.13,0,0,0-3.1-1.5c1.2-2.6,1.2-4.25.65-5.65-.25-.6-.75-.65-1.2,0a64.247,64.247,0,0,0-3.8,6.2,28.5,28.5,0,0,1-4.15.2c-.75-.05-1.05.3-.55,1A4.125,4.125,0,0,0,155.15,15.55Zm16.05-3.5c-.65-1.35-2.1-1.95-2.9-1.1a3.1,3.1,0,0,0-.25,3.7c.75,1.3,2.15,1.45,2.8.75A3.02,3.02,0,0,0,171.2,12.05Zm-8.15,23.7c2.8,0,5.95-2.1,7.45-5.2a3.56,3.56,0,0,0,.35-3.1c-.2-.4-.55-.45-.8,0-1.5,3.45-4.25,6.75-6.5,6.85-1.6.1-1.7-1.85-.5-4.75,1.05-2.5,3.15-5.9,4.2-8.1,1.2-2.5.8-4.65.05-5.45-.4-.45-.75-.3-1.2.3a61.73,61.73,0,0,0-6.4,12.15C158.3,32.55,159.25,35.75,163.05,35.75Zm11.4-9.95c2.7-5.25,6.15-10.9,8.2-14.3,2.15-3.65,2.3-5.8,1.7-7.5-.2-.6-.85-.65-1.25-.05-5.55,8.3-17.05,27.45-18.45,38.6-.55,4.25.95,6.2,2.2,7.25,1.5,1.3,2.75,1.1,4.45-1,2.4-3,4.6-8.55,5.4-13.6a12.006,12.006,0,0,0,6-5.2,4.978,4.978,0,0,0,.5-3c-.25-.7-.75-.65-1.05-.05a17.2,17.2,0,0,1-5.2,6.35c.05-.6.1-1.15.1-1.7C177.1,28.3,176.35,26.4,174.45,25.8Zm-.25,8.3c-.95-.2-1.4-1.25-1.35-2.85.05-1.15.5-3.8,1-4,.35-.15.85,1.4.8,3.25A22.852,22.852,0,0,1,174.2,34.1Zm-3.35-.55a3.549,3.549,0,0,0,3.05,2c-1.65,6.85-5.4,13.75-6.5,12.3C166.25,46.4,168.05,40.2,170.85,33.55Zm19.9-2.6c-.4,2.9.9,4.95,4.15,4.95,2.95,0,6.05-2.55,7.5-5.35a4.351,4.351,0,0,0,.45-3.15c-.2-.45-.65-.4-.9.05-1.95,3.5-4.5,6.8-6.6,6.9-1.8.1-2-2-.7-4.85,1.15-2.55,3.65-6.3,4.75-8.55,1.2-2.5.8-4.7.05-5.6-.4-.5-.75-.4-1.25.3-1.6,2.15-3.05,5.6-6.2,10.7-2.7,4.35-5.45,7.85-7.4,7.7-1.15-.1-1.3-1.9-.25-4.35a51.186,51.186,0,0,1,3.9-7.35c1.8-2.85,2.05-5.1.95-6.75a.752.752,0,0,0-1.3.05A53.656,53.656,0,0,0,181,28.4c-1.1,3.3-1,7,2.55,7.25C186.35,35.85,189,33.3,190.75,30.95ZM206.05,25c4.45-2.9,10.05-8.9,11.6-15.05.6-2.35.3-4.2-1.15-5.5-.7-.65-1.4-.55-2.15.25-5.1,5.3-10.8,14.35-12.65,23.05-1.15,5.4.7,7.8,4.15,7.9,4,.1,7.65-4.05,8.35-5.55a4.6,4.6,0,0,0,.5-3.1c-.2-.7-.75-.65-1.1,0-1.95,3.85-5.45,7.45-7.85,7.25C203.5,34.05,204.05,29.9,206.05,25Zm.9-2.15q.525-1.2,1.2-2.4c3.45-6.4,7.15-11.95,7.8-11.55S213.8,17.3,206.95,22.85Z" transform="translate(1071 6475)"/>
  </g>
</svg>
