<svg xmlns="http://www.w3.org/2000/svg" width="60" height="60" viewBox="0 0 60 60">
  <g id="Group_30" data-name="Group 30" transform="translate(-858 -395)">
    <rect id="Rectangle_8" data-name="Rectangle 8" width="60" height="60" rx="13" transform="translate(858 395)" fill="#df4842"/>
    <path id="account_balance_wallet_FILL0_wght400_GRAD0_opsz48" d="M32.6,27.2a3.064,3.064,0,0,0,2.225-.975A3.118,3.118,0,0,0,35.8,23.95a2.983,2.983,0,0,0-.975-2.2,3.081,3.081,0,0,0-4.45,0,2.983,2.983,0,0,0-.975,2.2,3.118,3.118,0,0,0,.975,2.275A3.064,3.064,0,0,0,32.6,27.2ZM9,36.35V39H9V9H9V36.35ZM9,42a2.906,2.906,0,0,1-2.075-.9A2.841,2.841,0,0,1,6,39V9a2.869,2.869,0,0,1,.925-2.075A2.869,2.869,0,0,1,9,6H39a2.841,2.841,0,0,1,2.1.925A2.906,2.906,0,0,1,42,9v6.7H39V9H9V39H39V32.35h3V39a3.076,3.076,0,0,1-3,3Zm17.9-8.65a3.648,3.648,0,0,1-2.7-1,3.582,3.582,0,0,1-1-2.65V18.35a3.564,3.564,0,0,1,1-2.675,3.7,3.7,0,0,1,2.7-.975H40.4a3.7,3.7,0,0,1,2.7.975,3.564,3.564,0,0,1,1,2.675V29.7a3.582,3.582,0,0,1-1,2.65,3.648,3.648,0,0,1-2.7,1Zm14.2-3h0V17.7H26.2V30.35H41.1Z" transform="translate(862.95 401)" fill="#fff"/>
  </g>
</svg>
