<svg xmlns="http://www.w3.org/2000/svg" width="586" height="760.5" viewBox="0 0 586 760.5">
  <text id="Book_Trial" data-name="Book Trial" transform="translate(141)" font-size="40" font-family="HelveticaNeue-Medium, Helvetica Neue" font-weight="500"><tspan x="0" y="39">Book Trial</tspan></text>
  <text id="Fill_in_the_form_on_the_right_email_to_us_or_DM_on_Instagram." data-name="Fill in the form on the right, email to us or DM on Instagram." transform="translate(141 55)" fill="#7e7b83" font-size="24" font-family="HelveticaNeue, Helvetica Neue"><tspan x="0" y="23">Fill in the form on the right, email </tspan><tspan x="0" y="52">to us or DM on Instagram.</tspan></text>
  <text id="We_call_you" data-name="We call you" transform="translate(131 200)" font-size="40" font-family="HelveticaNeue-Medium, Helvetica Neue" font-weight="500"><tspan x="0" y="39">We call you</tspan></text>
  <text id="Typically_we_will_get_back_to_you_in_few_minutes_as_we_value_your_time" data-name="Typically we will get back to you in few minutes as we value your time" transform="translate(131 258)" fill="#7e7b83" font-size="24" font-family="HelveticaNeue, Helvetica Neue"><tspan x="0" y="23">Typically we will get back to you in </tspan><tspan x="0" y="52">few minutes as we value your time</tspan></text>
  <g id="Group_52" data-name="Group 52" transform="translate(-5048 -7958)">
    <g id="Group_34" data-name="Group 34" transform="translate(4027 7871)">
      <path id="Path_6" data-name="Path 6" d="M50,0A50,50,0,1,1,0,50,50,50,0,0,1,50,0Z" transform="translate(1021 87)" fill="#df4842"/>
    </g>
    <path id="Path_11" data-name="Path 11" d="M35.4,13.26C30.9,21.42,25.08,33.3,23.88,37.08c-1.14,3.72-.66,5.58.3,6.66.42.48.84.36,1.08-.24C30,32.16,36.66,21.06,40.14,14.4c2.28-4.32,2.16-6.6.42-8.16a.986.986,0,0,0-1.56,0c-1.8,1.92-3.96,4.02-5.76,5.76C32.7,12.54,32.34,13.44,35.4,13.26Z" transform="translate(5064 7982)" fill="#fff"/>
  </g>
  <g id="Group_53" data-name="Group 53" transform="translate(-5048 -8089)">
    <g id="Group_35" data-name="Group 35" transform="translate(4027 8210)">
      <circle id="Ellipse_70" data-name="Ellipse 70" cx="50" cy="50" r="50" transform="translate(1021 87)" fill="#df4842"/>
    </g>
    <path id="Path_12" data-name="Path 12" d="M22.35,38.88c11.76-6.24,20.76-15.96,23.1-20.64,2.52-5.1,1.56-8.28-.66-10.5a7.427,7.427,0,0,0-8.7-1.02c-4.74,2.4-8.4,8.82-9.42,11.7-.24.72-.18.9.6.96,2.64.12,4.14-1.2,6-4.02,1.98-3,6.96-9.48,9.72-6.42,4.14,4.62-10.02,19.68-26.1,29.28-1.26.78-1.44,1.2-.96,2.4a7.382,7.382,0,0,0,1.5,2.52c.66.72,1.44.9,3,.42,3.48-1.02,11.34-2.46,14.82-2.34.78,0,.78-.36.6-.9-.66-1.86-2.4-2.94-5.34-2.88A33.948,33.948,0,0,0,22.35,38.88Z" transform="translate(5064 8321)" fill="#fff"/>
  </g>
  <text id="We_visit_you_for_trial" data-name="We visit you for trial" transform="translate(131 408)" font-size="40" font-family="HelveticaNeue-Medium, Helvetica Neue" font-weight="500"><tspan x="0" y="39">We visit you for trial</tspan></text>
  <text id="We_will_send_our_bestest_staff_to_our_bestest_client_cum_friend" data-name="We will send our bestest  staff to our bestest client cum friend" transform="translate(131 466)" fill="#7e7b83" font-size="24" font-family="HelveticaNeue, Helvetica Neue"><tspan x="0" y="23" xml:space="preserve">We will send our bestest  staff to </tspan><tspan x="0" y="52">our bestest client cum friend</tspan></text>
  <g id="Group_54" data-name="Group 54" transform="translate(-5048 -7881)">
    <g id="Group_35-2" data-name="Group 35" transform="translate(4027 8210)">
      <circle id="Ellipse_70-2" data-name="Ellipse 70" cx="50" cy="50" r="50" transform="translate(1021 87)" fill="#df4842"/>
    </g>
    <path id="Path_13" data-name="Path 13" d="M45.45,17.1c3.3-4.38,2.94-7.86.36-10.5-2.04-2.1-5.88-2.46-8.82-1.02s-6.96,5.64-8.76,9.24c-.3.6-.18.96.6,1.08,2.46.48,4.56-.96,6.48-3.36,2.82-3.54,6.48-6.96,8.7-4.62,2.58,2.7-3,10.98-15.78,14.76-.78.24-.9.72-.54,1.14,3.12,3.78,6.96.12,9.42,1.8,1.92,1.32.12,5.58-2.76,9.18-3.24,4.08-8.22,6.48-11.22,4.62-2.16-1.38-2.1-5.64.9-10.44.3-.48.12-.84-.48-.84a5.745,5.745,0,0,0-4.92,3.9,7.647,7.647,0,0,0,3.06,9.3c3.84,2.52,11.04,2.4,16.14-3.84,4.44-5.46,5.28-10.62,2.22-13.2a6.79,6.79,0,0,0-2.76-1.2A21.054,21.054,0,0,0,45.45,17.1Z" transform="translate(5064 8321)" fill="#fff"/>
  </g>
  <text id="You_call_us_again_" data-name="You call us again!" transform="translate(131 615.5)" fill="#020202" font-size="40" font-family="HelveticaNeue-Medium, Helvetica Neue" font-weight="500"><tspan x="0" y="39">You call us again!</tspan></text>
  <text id="We_are_confident_that_you_will_love_our_services_and_hence_you_will_call_us_again." data-name="We are confident that you will love our services and hence you will call us again." transform="translate(131 673.5)" fill="#7e7b83" font-size="24" font-family="HelveticaNeue, Helvetica Neue"><tspan x="0" y="23">We are confident that you will love </tspan><tspan x="0" y="52">our services and hence you will </tspan><tspan x="0" y="81">call us again.</tspan></text>
  <g id="Group_55" data-name="Group 55" transform="translate(-5048 -7673.5)">
    <g id="Group_35-3" data-name="Group 35" transform="translate(4027 8210)">
      <circle id="Ellipse_70-3" data-name="Ellipse 70" cx="50" cy="50" r="50" transform="translate(1021 87)" fill="#df4842"/>
    </g>
    <path id="Path_14" data-name="Path 14" d="M43.62,11.28a149.726,149.726,0,0,0-8.7,14.88,62.4,62.4,0,0,0-12.06,1.92C28.14,22.44,36.66,16.08,43.62,11.28Zm-4.14,15.6c3.18-5.7,6.36-11.1,8.46-14.34,1.2-1.86,1.2-2.16.48-3.48-.66-1.14-1.08-1.86-1.68-2.82s-1.62-.66-2.34-.18c-7.68,4.92-19.26,14.22-24.24,20.1a1.63,1.63,0,0,0-.24,1.92,27.809,27.809,0,0,0,2.1,3.42c.54.66,1.14.66,2.04.48,2.46-.6,5.7-1.14,8.76-1.56-1.2,2.52-2.16,4.74-2.76,6.36-1.26,3.6-.54,5.22.36,6.54.3.42.78.36,1.02-.24A127.817,127.817,0,0,1,37.8,30a13.483,13.483,0,0,1,3.24.18c.6.12.78-.18.66-.72A4.326,4.326,0,0,0,39.48,26.88Z" transform="translate(5064 8321)" fill="#fff"/>
  </g>
  <line id="Line_3" data-name="Line 3" y2="80" transform="translate(50.5 112.5)" fill="none" stroke="#707070" stroke-width="1" stroke-dasharray="4"/>
  <line id="Line_4" data-name="Line 4" y2="80" transform="translate(50.5 330.5)" fill="none" stroke="#707070" stroke-width="1" stroke-dasharray="4"/>
  <line id="Line_5" data-name="Line 5" y2="80" transform="translate(50.5 536.5)" fill="none" stroke="#707070" stroke-width="1" stroke-dasharray="4"/>
</svg>
